<svg width="35" height="33" viewBox="0 0 35 33" fill="none" xmlns="http://www.w3.org/2000/svg">
<g clip-path="url(#clip0_60_207)">
<path d="M17.5 0.580811C7.83501 0.580811 0 7.82635 0 16.7642C0 25.702 7.83501 32.9476 17.5 32.9476C27.165 32.9476 35 25.702 35 16.7642C35 7.82635 27.165 0.580811 17.5 0.580811ZM8.54493 10.5038H26.4551V12.8329L17.5 17.5544L8.54493 12.8329V10.5038ZM8.54493 14.3225L13.1058 16.7267L8.54493 21.1478V14.3225ZM26.4551 14.3225V21.1479L21.8942 16.7266L26.4551 14.3225ZM14.3597 17.3885L17.5 19.0439L20.6403 17.3884L26.4551 23.0246H8.54493L14.3597 17.3885Z" fill="white"/>
</g>
<defs>
<clipPath id="clip0_60_207">
<rect width="35" height="32.3668" fill="white" transform="translate(0 0.580811)"/>
</clipPath>
</defs>
</svg>
