<svg width="30" height="28" viewBox="0 0 30 28" fill="none" xmlns="http://www.w3.org/2000/svg">
<path d="M27.1875 3.88574H2.8125C1.25918 3.88574 0 5.03886 0 6.46135V21.915C0 23.3375 1.25918 24.4906 2.8125 24.4906H27.1875C28.7408 24.4906 30 23.3375 30 21.915V6.46135C30 5.03886 28.7408 3.88574 27.1875 3.88574ZM27.1875 6.46135V8.65088C25.8737 9.63063 23.7792 11.1541 19.3015 14.365C18.3148 15.0758 16.3601 16.7835 15 16.7636C13.6402 16.7837 11.6848 15.0755 10.6985 14.365C6.22148 11.1546 4.12646 9.63079 2.8125 8.65088V6.46135H27.1875ZM2.8125 21.915V11.9559C4.15512 12.9352 6.05912 14.3094 8.96121 16.3905C10.2419 17.3137 12.4847 19.3517 15 19.3393C17.5029 19.3517 19.7173 17.3433 21.0383 16.3909C23.9403 14.3099 25.8448 12.9353 27.1875 11.9559V21.915H2.8125Z" fill="#E5E5E5"/>
</svg>
