<svg width="30" height="28" viewBox="0 0 30 28" fill="none" xmlns="http://www.w3.org/2000/svg">
<path d="M27.1875 3.53638H2.8125C1.25918 3.53638 0 4.70082 0 6.13728V21.7427C0 23.1791 1.25918 24.3436 2.8125 24.3436H27.1875C28.7408 24.3436 30 23.1791 30 21.7427V6.13728C30 4.70082 28.7408 3.53638 27.1875 3.53638ZM27.1875 6.13728V8.34831C25.8737 9.33768 23.7792 10.8761 19.3015 14.1185C18.3148 14.8363 16.3601 16.5608 15 16.5407C13.6402 16.561 11.6848 14.836 10.6985 14.1185C6.22148 10.8766 4.12646 9.33785 2.8125 8.34831V6.13728H27.1875ZM2.8125 21.7427V11.6858C4.15512 12.6747 6.05912 14.0624 8.96121 16.164C10.2419 17.0962 12.4847 19.1542 15 19.1417C17.5029 19.1542 19.7173 17.1261 21.0383 16.1644C23.9403 14.0629 25.8448 12.6748 27.1875 11.6858V21.7427H2.8125Z" fill="#D41B1B"/>
</svg>
