<svg width="35" height="36" viewBox="0 0 35 36" fill="none" xmlns="http://www.w3.org/2000/svg">
<path d="M17.5 35.3042C27.165 35.3042 35 27.4942 35 17.8601C35 8.22599 27.165 0.416016 17.5 0.416016C7.83502 0.416016 0 8.22599 0 17.8601C0 27.4942 7.83502 35.3042 17.5 35.3042Z" fill="url(#paint0_linear_58_4)"/>
<path d="M17.5 9.38759C20.3 9.38759 20.6 9.38759 21.7 9.48727C22.7 9.48727 23.3 9.68663 23.6 9.88599C24.1 10.0854 24.4 10.2847 24.8 10.6834C25.2 11.0822 25.4 11.3812 25.6 11.8796C25.7 12.2783 25.9 12.7767 26 13.7735C26.1 14.87 26.1 15.1691 26.1 17.9601C26.1 20.7512 26.1 21.0503 26 22.1467C26 23.1436 25.8 23.7416 25.6 24.0407C25.4 24.5391 25.2 24.8381 24.8 25.2369C24.4 25.6356 24.1 25.8349 23.6 26.0343C23.2 26.134 22.7 26.3333 21.7 26.433C20.6 26.3333 20.3 26.3333 17.5 26.3333C14.7 26.3333 14.4 26.3333 13.3 26.2337C12.3 26.2337 11.7 26.0343 11.4 25.8349C10.9 25.6356 10.6 25.4362 10.2 25.0375C9.8 24.6388 9.6 24.3397 9.4 23.8413C9.3 23.4426 9.1 22.9442 9 21.9474V17.8605C9 15.0694 9 14.7704 9.1 13.6739C9.1 12.6771 9.3 12.079 9.5 11.7799C9.7 11.2815 9.9 10.9825 10.3 10.5838C10.7 10.185 11 9.98567 11.5 9.78631C11.9 9.68663 12.4 9.48727 13.4 9.38759H17.5ZM17.5 7.49365C14.7 7.49365 14.3 7.49365 13.2 7.59333C12.1 7.69301 11.3 7.79269 10.7 8.09174C10 8.2911 9.4 8.68982 8.8 9.18823C8.3 9.78631 7.9 10.3844 7.6 11.0822C7.3 11.7799 7.2 12.4777 7.1 13.5742C7 14.6707 7 15.0694 7 17.8605C7 20.6515 7 21.0503 7.1 22.1467C7.2 23.2432 7.3 24.0407 7.6 24.6388C7.9 25.3365 8.2 25.9346 8.8 26.433C9.4 27.0311 10 27.3302 10.6 27.6292C11.3 27.9282 12 28.0279 13.1 28.1276C14.2 28.2273 14.6 28.2273 17.4 28.2273C20.2 28.2273 20.6 28.2273 21.7 28.1276C22.8 28.0279 23.6 27.9282 24.2 27.6292C24.9 27.3302 25.5 27.0311 26 26.433C26.6 25.8349 26.9 25.2369 27.2 24.6388C27.5 23.941 27.6 23.2432 27.7 22.1467C27.8 21.0503 27.8 20.6515 27.8 17.8605C27.8 15.0694 27.8 14.6707 27.7 13.5742C27.6 12.4777 27.5 11.6803 27.2 11.0822C26.9 10.3844 26.6 9.78631 26 9.28791C25.4 8.68982 24.8 8.39078 24.2 8.09174C23.5 7.79269 22.8 7.69301 21.7 7.59333C20.7 7.49365 20.3 7.49365 17.5 7.49365Z" fill="white"/>
<path d="M17.5 12.5776C14.5 12.5776 12.2 14.9699 12.2 17.8606C12.2 20.7513 14.6 23.1435 17.5 23.1435C20.4 23.1435 22.8 20.7513 22.8 17.8606C22.8 14.9699 20.5 12.5776 17.5 12.5776ZM17.5 21.3493C15.6 21.3493 14 19.7545 14 17.8606C14 15.9667 15.6 14.3718 17.5 14.3718C19.4 14.3718 21 15.9667 21 17.8606C21 19.7545 19.4 21.3493 17.5 21.3493Z" fill="white"/>
<path d="M23.1 13.5726C23.818 13.5726 24.4 12.9927 24.4 12.2775C24.4 11.5622 23.818 10.9824 23.1 10.9824C22.382 10.9824 21.8 11.5622 21.8 12.2775C21.8 12.9927 22.382 13.5726 23.1 13.5726Z" fill="white"/>
<defs>
<linearGradient id="paint0_linear_58_4" x1="5.23766" y1="30.306" x2="29.683" y2="5.33736" gradientUnits="userSpaceOnUse">
<stop offset="0.05" stop-color="#FFD521"/>
<stop offset="0.501" stop-color="#F50000"/>
<stop offset="0.95" stop-color="#B900B4"/>
</linearGradient>
</defs>
</svg>
