<svg width="35" height="33" viewBox="0 0 35 33" fill="none" xmlns="http://www.w3.org/2000/svg">
<g clip-path="url(#clip0_53_184)">
<path d="M17.5 0.580811C7.83494 0.580811 0 7.82629 0 16.7642C0 25.7021 7.83494 32.9476 17.5 32.9476C27.1651 32.9476 35 25.7021 35 16.7642C35 7.82629 27.1651 0.580811 17.5 0.580811Z" fill="#40B3E0"/>
<path d="M26.0153 9.89013L22.8895 24.4639C22.8895 24.4639 22.4524 25.4746 21.2502 24.9895L14.0372 19.8755L11.4144 18.7032L6.99919 17.3287C6.99919 17.3287 6.32161 17.1064 6.25598 16.6213C6.19036 16.1362 7.02106 15.8734 7.02106 15.8734L24.5725 9.50629C24.5725 9.50629 26.0151 8.92014 26.0151 9.89039" fill="white"/>
<path d="M13.4829 24.3C13.4829 24.3 13.2724 24.2818 13.0099 23.5136C12.7478 22.7455 11.4144 18.703 11.4144 18.703L22.0153 12.4774C22.0153 12.4774 22.6274 12.1338 22.6055 12.4774C22.6055 12.4774 22.7147 12.5381 22.3867 12.8211C22.059 13.1042 14.0592 19.7541 14.0592 19.7541" fill="#D2E5F1"/>
<path d="M16.8029 21.836L13.95 24.2415C13.95 24.2415 13.7268 24.398 13.4829 24.2999L14.0293 19.8318" fill="#B5CFE4"/>
</g>
<defs>
<clipPath id="clip0_53_184">
<rect width="35" height="32.3668" fill="white" transform="translate(0 0.580811)"/>
</clipPath>
</defs>
</svg>
