<svg width="25" height="24" viewBox="0 0 25 24" fill="none" xmlns="http://www.w3.org/2000/svg">
<path d="M12.5 2.69092C10.5685 2.69092 8.68046 3.22057 7.07451 4.2129C5.46857 5.20523 4.21688 6.61566 3.47774 8.26584C2.73861 9.91603 2.54521 11.7318 2.92202 13.4837C3.29883 15.2355 4.22892 16.8446 5.59466 18.1076C6.96041 19.3706 8.70048 20.2307 10.5948 20.5792C12.4892 20.9277 14.4527 20.7488 16.2371 20.0653C18.0216 19.3818 19.5468 18.2242 20.6198 16.7391C21.6929 15.254 22.2656 13.508 22.2656 11.7218C22.2605 9.32814 21.2299 7.03387 19.3996 5.34128C17.5694 3.64869 15.0884 2.69569 12.5 2.69092ZM12.5 20.0303C10.7231 20.0303 8.98603 19.543 7.50855 18.63C6.03108 17.7171 4.87953 16.4195 4.19952 14.9013C3.51952 13.3832 3.3416 11.7126 3.68826 10.1009C4.03493 8.48925 4.8906 7.00883 6.14709 5.84687C7.40358 4.68492 9.00444 3.89362 10.7472 3.57303C12.49 3.25245 14.2965 3.41699 15.9382 4.04583C17.5799 4.67468 18.983 5.73959 19.9702 7.1059C20.9575 8.47222 21.4844 10.0786 21.4844 11.7218C21.4818 13.9246 20.5344 16.0365 18.8501 17.5941C17.1657 19.1517 14.882 20.0279 12.5 20.0303ZM8.98438 11.7218C8.98438 12.4042 9.21654 13.0692 9.64798 13.6228C10.0794 14.1763 10.6883 14.5903 11.3883 14.8061C12.0883 15.0219 12.8439 15.0285 13.5483 14.8251C14.2526 14.6216 14.8698 14.2184 15.3125 13.6725C15.3433 13.6345 15.3818 13.6026 15.426 13.5784C15.4701 13.5542 15.519 13.5383 15.5698 13.5316C15.6205 13.5249 15.6723 13.5275 15.7219 13.5393C15.7716 13.5511 15.8183 13.5718 15.8594 13.6002C15.9004 13.6287 15.935 13.6644 15.9611 13.7052C15.9873 13.746 16.0044 13.7912 16.0117 13.8382C16.019 13.8851 16.0161 13.9329 16.0034 13.9789C15.9907 14.0248 15.9683 14.068 15.9375 14.106C15.3964 14.7732 14.642 15.266 13.7812 15.5147C12.9204 15.7633 11.9968 15.7552 11.1412 15.4915C10.2857 15.2278 9.54151 14.7218 9.0142 14.0452C8.48688 13.3687 8.20313 12.5558 8.20313 11.7218C8.20313 10.8878 8.48688 10.075 9.0142 9.39842C9.54151 8.72185 10.2857 8.21587 11.1412 7.95214C11.9968 7.68841 12.9204 7.6803 13.7812 7.92897C14.642 8.17764 15.3964 8.67047 15.9375 9.33766C15.9683 9.37561 15.9907 9.4188 16.0034 9.46475C16.0161 9.51071 16.019 9.55853 16.0117 9.60549C16.0044 9.65245 15.9873 9.69763 15.9611 9.73845C15.935 9.77927 15.9004 9.81493 15.8594 9.84339C15.8183 9.87186 15.7716 9.89256 15.7219 9.90434C15.6723 9.91611 15.6205 9.91872 15.5698 9.91201C15.519 9.9053 15.4701 9.88941 15.426 9.86524C15.3818 9.84107 15.3433 9.8091 15.3125 9.77115C14.9866 9.3658 14.5623 9.03692 14.0738 8.81104C13.5853 8.58515 13.0462 8.46857 12.5 8.4707C11.5676 8.4707 10.6734 8.81322 10.0141 9.42293C9.35477 10.0326 8.98438 10.8596 8.98438 11.7218Z" fill="white"/>
</svg>
