<svg width="30" height="30" viewBox="0 0 30 30" fill="none" xmlns="http://www.w3.org/2000/svg">
<path d="M18.75 17.5C19.4404 17.5 20 16.9404 20 16.25C20 15.5596 19.4404 15 18.75 15C18.0596 15 17.5 15.5596 17.5 16.25C17.5 16.9404 18.0596 17.5 18.75 17.5Z" fill="white"/>
<path d="M21.25 15C21.9404 15 22.5 14.4404 22.5 13.75C22.5 13.0596 21.9404 12.5 21.25 12.5C20.5596 12.5 20 13.0596 20 13.75C20 14.4404 20.5596 15 21.25 15Z" fill="white"/>
<path d="M12.5 11.25H10V13.75H7.5V16.25H10V18.75H12.5V16.25H15V13.75H12.5V11.25Z" fill="white"/>
<path d="M18.75 6.25H11.25C8.92936 6.25 6.70376 7.17187 5.06282 8.81282C3.42187 10.4538 2.5 12.6794 2.5 15C2.5 17.3206 3.42187 19.5462 5.06282 21.1872C6.70376 22.8281 8.92936 23.75 11.25 23.75H18.75C21.0706 23.75 23.2962 22.8281 24.9372 21.1872C26.5781 19.5462 27.5 17.3206 27.5 15C27.5 12.6794 26.5781 10.4538 24.9372 8.81282C23.2962 7.17187 21.0706 6.25 18.75 6.25V6.25ZM18.75 21.25H11.25C9.5924 21.25 8.00269 20.5915 6.83058 19.4194C5.65848 18.2473 5 16.6576 5 15C5 13.3424 5.65848 11.7527 6.83058 10.5806C8.00269 9.40848 9.5924 8.75 11.25 8.75H18.75C20.4076 8.75 21.9973 9.40848 23.1694 10.5806C24.3415 11.7527 25 13.3424 25 15C25 16.6576 24.3415 18.2473 23.1694 19.4194C21.9973 20.5915 20.4076 21.25 18.75 21.25Z" fill="white"/>
</svg>
