<svg width="32" height="30" viewBox="0 0 32 30" fill="none" xmlns="http://www.w3.org/2000/svg">
<path d="M31.761 15.0914C31.684 11.1061 28.173 7.93265 23.922 8.00109C23.531 8.00109 23.121 8.03109 22.719 8.06484C19.36 8.5289 17.12 10.7901 15.88 12.5273C14.615 10.7901 12.36 8.5289 9.027 8.06484C8.62856 8.02675 8.22848 8.00548 7.828 8.00109C3.579 7.94202 0.079 11.1108 0 15.0914C0.079 19.0711 3.579 22.2398 7.828 22.1817C8.229 22.1817 8.625 22.1517 9.052 22.103C12.412 21.6539 14.651 19.3926 15.907 17.6555C17.172 19.3926 19.412 21.6539 22.76 22.118C23.172 22.1517 23.563 22.1817 23.973 22.1817C28.202 22.2201 31.683 19.057 31.761 15.0914ZM8.641 19.5942C8.376 19.643 8.069 19.643 7.804 19.643C6.47692 19.6705 5.1921 19.2048 4.2299 18.3475C3.2677 17.4902 2.70623 16.3109 2.668 15.067C2.70933 13.8227 3.27305 12.6439 4.23653 11.7872C5.20002 10.9304 6.48536 10.465 7.813 10.492C8.08 10.492 8.376 10.5173 8.652 10.5408C11.813 10.9805 13.747 13.8811 14.403 15.067C13.736 16.2548 11.804 19.193 8.652 19.5942H8.641ZM17.334 15.0914C17.985 13.9289 19.922 11.0039 23.079 10.5651C23.35 10.5164 23.64 10.5164 23.907 10.5164C24.5667 10.4977 25.2238 10.6013 25.8407 10.8213C26.4575 11.0414 27.0219 11.3735 27.5015 11.7986C27.981 12.2237 28.3663 12.7334 28.6351 13.2985C28.9039 13.8636 29.051 14.4729 29.068 15.0914C29.0246 16.3354 28.46 17.5133 27.4965 18.3697C26.5331 19.2261 25.2484 19.692 23.921 19.6664C23.6443 19.6629 23.368 19.6466 23.093 19.6176C19.948 19.1789 18 16.2539 17.349 15.0914H17.334ZM5.616 15.8292H10.335V14.3789H5.627V15.8292H5.616ZM24.454 15.8292H26.042V14.3789H24.438V12.8892H22.933V14.393H21.334V15.8292H22.933V17.3039H24.47V15.8442L24.454 15.8292Z" fill="white"/>
</svg>
