<svg width="28" height="28" viewBox="0 0 28 28" fill="none" xmlns="http://www.w3.org/2000/svg">
<g clip-path="url(#clip0_153_2)">
<path d="M18.7941 20.23C17.7966 21.3824 17.2401 23.4841 17.969 24.1631C18.662 24.682 20.5354 24.619 21.9161 22.7273C22.9233 21.4646 22.5811 19.3506 22.0115 18.7898C21.1601 18.1431 19.9386 18.9823 18.7941 20.2449V20.23ZM9.39752 20.5765C8.33614 19.3646 6.95889 18.6436 6.06989 19.1774C5.47227 19.6228 5.36377 21.1453 6.21077 22.6398C7.46814 24.4178 9.24177 24.5998 9.97064 24.1666C10.7406 23.597 10.3215 21.6685 9.39664 20.5756L9.39752 20.5765ZM14.1864 24.2445C12.8975 24.2174 10.9183 24.7599 10.9463 25.452C10.9226 25.9219 12.5003 27.2851 14.1041 27.216C15.6485 27.2519 17.248 25.886 17.2305 25.2936C17.2261 24.682 15.484 24.213 14.1899 24.2638L14.1864 24.2445ZM14.1006 7.98C12.6105 7.94413 11.179 9.0685 11.179 9.72038C11.1746 10.514 12.355 11.3243 14.1094 11.3479C15.9093 11.3558 17.0433 10.696 17.0625 9.87525C17.0809 8.95038 15.435 7.96513 14.1225 7.97913L14.1006 7.98ZM10.514 8.5995C8.02552 8.19788 5.95264 9.64863 6.03402 12.3226C6.11539 13.3525 11.4345 8.77713 10.5184 8.61875L10.514 8.5995ZM21.889 12.3909C21.9704 9.73438 19.8975 8.28538 17.4046 8.68525C16.4885 8.84538 21.8068 13.4251 21.889 12.3909ZM22.3125 13.3525C20.8679 12.9701 21.8251 19.2456 23.0011 18.739C24.2953 17.7231 24.71 14.7149 22.3125 13.3709V13.3525ZM4.93152 18.8081C6.10664 19.3323 7.06389 13.0568 5.61839 13.44C3.22702 14.7884 3.63652 17.7914 4.93152 18.8265V18.8081ZM15.9189 11.8676C14.5784 12.7426 14.3369 14.7026 15.3808 16.2383C16.4194 17.7783 18.3479 18.3523 19.6823 17.4956C21.0228 16.6443 21.2643 14.6843 20.2248 13.125C19.1809 11.571 17.2533 11.011 15.9189 11.886V11.8676ZM12.3051 12.0269C10.969 11.1694 9.03702 11.7303 8.00277 13.2659C6.95977 14.8243 7.20126 16.7799 8.54089 17.6549C9.87702 18.5299 11.8038 17.969 12.8485 16.415C13.8784 14.875 13.6325 12.915 12.306 12.0444L12.3051 12.0269ZM17.3994 20.3805C17.3898 18.7574 15.9408 17.4449 14.1593 17.4641C12.3769 17.4816 10.9366 18.7898 10.9463 20.4173V20.4488C10.9559 22.0763 12.4093 23.3888 14.1908 23.3704C15.9723 23.3704 17.4081 22.0448 17.3898 20.4365V20.3989L17.3994 20.3805ZM21.1461 2.72563C18.452 4.10725 16.8858 5.20975 16.023 6.15213C16.4649 7.90213 18.7574 7.97125 19.6009 7.91613C19.4268 7.84875 19.2815 7.74375 19.2308 7.60725C19.4408 7.46463 20.1889 7.58888 20.7121 7.30625C20.5118 7.27388 20.4155 7.23713 20.3245 7.07788C20.8171 6.92388 21.3456 6.8005 21.6545 6.53625C21.4909 6.53625 21.3316 6.57213 21.1129 6.43125C21.5504 6.20725 22.0194 6.01125 22.3878 5.66475C22.1603 5.66475 21.9144 5.66475 21.8461 5.57813C22.2246 5.35392 22.5686 5.07599 22.8673 4.753C22.5523 4.80813 22.4158 4.77663 22.3379 4.7215C22.6433 4.4205 23.0309 4.16062 23.2129 3.773C22.9758 3.864 22.7579 3.878 22.603 3.773C22.7124 3.54988 23.1551 3.409 23.4089 2.8665C23.1595 2.90238 22.8944 2.92163 22.8393 2.8665C22.9583 2.41063 23.1543 2.15163 23.3503 1.869C22.8174 1.869 22.0054 1.869 22.0456 1.83663L22.3746 1.50413C21.854 1.36325 21.3211 1.5225 20.9335 1.645C20.7611 1.5225 20.9335 1.344 21.1479 1.17163C20.692 1.24425 20.2948 1.33175 19.9448 1.47263C19.7531 1.29413 20.0629 1.14013 20.2221 0.961625C19.5248 1.1025 19.2421 1.27663 18.9455 1.449C18.7355 1.25738 18.928 1.085 19.0689 0.930125C18.5439 1.12175 18.2805 1.36325 18.0023 1.59075C17.8973 1.46825 17.7564 1.38163 17.9288 1.06662C17.5648 1.27663 17.2813 1.5225 17.0721 1.80075C16.8481 1.64588 16.9356 1.44988 16.9356 1.27663C16.548 1.59075 16.3056 1.90575 16.0108 2.22425C15.9373 2.18838 15.8874 2.04663 15.8506 1.81913C14.9433 2.69413 13.6448 4.88163 15.5181 5.733C17.0896 4.45638 18.9945 3.514 21.0963 2.81138L21.1461 2.72563ZM6.84514 2.72563C8.94164 3.42825 10.8325 4.37063 12.4198 5.66475C14.2783 4.78975 12.9938 2.60225 12.0864 1.75088C12.0409 1.974 11.991 2.13325 11.9324 2.17C11.6358 1.85588 11.3943 1.5365 11.0119 1.22238C11.0119 1.4 11.1029 1.61 10.8745 1.7465C10.6481 1.44553 10.361 1.19543 10.0319 1.01237C10.2043 1.31337 10.059 1.4 9.96277 1.5365C9.68539 1.2775 9.42027 1.03163 8.91539 0.84C9.05627 1.01237 9.26539 1.19088 9.05627 1.3825C8.77714 1.20838 8.47789 1.03163 7.79889 0.889875C7.95289 1.06225 8.26789 1.23988 8.07626 1.41838C7.68835 1.26578 7.28259 1.16316 6.86877 1.113C7.07789 1.29063 7.26514 1.44988 7.09189 1.58638C6.69026 1.4455 6.15302 1.28975 5.62889 1.43238L5.95702 1.7605C5.99464 1.806 5.19139 1.79638 4.64889 1.80163C4.84489 2.06675 5.04527 2.32575 5.15989 2.79913C5.10477 2.849 4.84489 2.8175 4.59552 2.79913C4.85889 3.32413 5.29202 3.465 5.39702 3.6925C5.24214 3.80188 5.03214 3.77912 4.78714 3.6925C4.97877 4.05737 5.36552 4.32163 5.66214 4.63663C5.57464 4.6865 5.45214 4.72325 5.11964 4.68213C5.39702 4.98313 5.72952 5.25613 6.13552 5.502C6.06202 5.58338 5.81614 5.579 5.57464 5.58863C5.93952 5.94475 6.41377 6.13113 6.85127 6.363C6.62377 6.52313 6.46364 6.48638 6.30877 6.48638C6.60539 6.74538 7.14789 6.86875 7.63964 7.0245C7.53027 7.18288 7.44802 7.2205 7.23364 7.252C7.75777 7.54863 8.49102 7.41213 8.70627 7.56613C8.65114 7.707 8.51464 7.812 8.33789 7.8855C9.17527 7.93538 11.487 7.86713 11.9245 6.11713C11.0626 5.17475 9.49114 4.0705 6.79702 2.70813L6.84514 2.72563ZM8.86902 0.119C9.14201 0.114625 9.37389 0.277375 9.62939 0.356125C10.2445 0.15575 10.3854 0.42875 10.6864 0.5425C11.361 0.401625 11.5658 0.706125 11.8895 1.02988L12.264 1.01588C13.2799 1.60825 13.7856 2.81138 13.9641 3.42738C14.1418 2.81138 14.6475 1.60825 15.6643 1.01588L16.0379 1.0255C16.3608 0.697375 16.5664 0.396375 17.241 0.538125C17.5464 0.41475 17.6829 0.15575 18.3041 0.3465C18.6918 0.223125 19.0286 -0.091 19.5388 0.291375C19.9666 0.119 20.3866 0.063875 20.7559 0.396375C21.3343 0.32725 21.5163 0.469 21.658 0.64225C21.7866 0.64225 22.6021 0.518875 22.9801 1.06138C23.9286 0.956375 24.2253 1.60388 23.8831 2.21375C24.0791 2.51038 24.2795 2.79388 23.828 3.35388C24.0004 3.66888 23.8954 3.997 23.5086 4.41525C23.618 4.85275 23.422 5.15375 23.0755 5.39525C23.1446 5.99288 22.5155 6.34375 22.3414 6.46188C22.2688 6.81275 22.1279 7.14525 21.413 7.3185C21.308 7.8435 20.8705 7.93013 20.4505 8.03512C21.8365 8.82263 23.0029 9.8525 23.0029 12.3865L23.2164 12.7374C24.7888 13.6815 26.2063 16.7064 24.0004 19.173C23.8639 19.9386 23.618 20.4811 23.4045 21.091C23.0895 23.5559 20.9755 24.71 20.419 24.8509C19.6131 25.4608 18.7416 26.04 17.5709 26.4408C16.4675 27.5616 15.2644 27.9991 14.0744 27.9991H13.9703C12.7628 27.9991 11.5588 27.5616 10.4563 26.4408C9.28027 26.0391 8.40527 25.4651 7.59939 24.8509C7.03852 24.7144 4.93677 23.5603 4.60952 21.0954C4.39164 20.4855 4.15014 19.9237 4.00839 19.1538C1.79727 16.6889 3.21039 13.6666 4.78277 12.7181L4.98314 12.3716C4.98314 9.8385 6.15302 8.80425 7.53464 8.02025C7.11552 7.91525 6.69552 7.82863 6.57827 7.30013C5.85814 7.126 5.71639 6.7935 5.64814 6.44263C5.47402 6.3245 4.84577 5.97363 4.91402 5.36375C4.56314 5.11788 4.37152 4.82125 4.47652 4.36538C4.11164 3.96375 4.00752 3.61375 4.16152 3.29875C3.70652 2.73875 3.91564 2.44213 4.10814 2.16388C3.77477 1.54875 4.07577 0.889 5.01902 0.994C5.38302 0.4515 6.20814 0.574 6.32714 0.574C6.46802 0.396375 6.65964 0.2415 7.23802 0.310625C7.60289 -0.02275 8.02639 0.0315 8.45952 0.191625C8.63714 0.05075 8.79202 0 8.93289 0L8.86902 0.119Z" fill="white"/>
</g>
<defs>
<clipPath id="clip0_153_2">
<rect width="28" height="28" fill="white"/>
</clipPath>
</defs>
</svg>
