<svg width="20" height="20" viewBox="0 0 20 20" fill="none" xmlns="http://www.w3.org/2000/svg">
<g clip-path="url(#clip0_154_9)">
<path d="M18.3333 1.66667V18.3333H1.66667V1.66667H18.3333ZM18.3333 0H1.66667C1.22464 0 0.800716 0.175595 0.488155 0.488155C0.175595 0.800716 0 1.22464 0 1.66667L0 18.3333C0 18.7754 0.175595 19.1993 0.488155 19.5118C0.800716 19.8244 1.22464 20 1.66667 20H18.3333C18.7754 20 19.1993 19.8244 19.5118 19.5118C19.8244 19.1993 20 18.7754 20 18.3333V1.66667C20 1.22464 19.8244 0.800716 19.5118 0.488155C19.1993 0.175595 18.7754 0 18.3333 0V0Z" fill="white"/>
<path d="M15 14.1667H5V15.8333H15V14.1667ZM10.8333 15.8333H9.16667V18.3333H10.8333V15.8333Z" fill="white"/>
<path fill-rule="evenodd" clip-rule="evenodd" d="M7.7725 5.90749C7.75658 5.88317 7.7413 5.85844 7.72667 5.83332H1.66667V4.16665H7.72167C7.86776 3.91276 8.07834 3.70198 8.33209 3.55564C8.58584 3.4093 8.87375 3.33261 9.16667 3.33332H10.8333C11.1257 3.33364 11.4129 3.41079 11.666 3.55705C11.9192 3.70331 12.1295 3.91353 12.2758 4.16665H19.1667V5.83332H12.2733C12.0555 6.20641 11.701 6.48015 11.285 6.59665L10 9.16665L8.715 6.59665C8.32785 6.48843 7.99302 6.2436 7.7725 5.90749ZM10 5.83332H9.16334H10.8367H10ZM10.8333 4.99999C10.8333 5.221 10.7455 5.43296 10.5893 5.58924C10.433 5.74552 10.221 5.83332 10 5.83332C9.77899 5.83332 9.56703 5.74552 9.41075 5.58924C9.25447 5.43296 9.16667 5.221 9.16667 4.99999C9.16667 4.77897 9.25447 4.56701 9.41075 4.41073C9.56703 4.25445 9.77899 4.16665 10 4.16665C10.221 4.16665 10.433 4.25445 10.5893 4.41073C10.7455 4.56701 10.8333 4.77897 10.8333 4.99999Z" fill="white"/>
</g>
<defs>
<clipPath id="clip0_154_9">
<rect width="20" height="20" fill="white"/>
</clipPath>
</defs>
</svg>
