<svg width="50" height="42" viewBox="0 0 50 42" fill="none" xmlns="http://www.w3.org/2000/svg">
<path d="M4.04932 13.125C4.04932 11.7326 4.69463 10.3973 5.84329 9.41269C6.99195 8.42812 8.54987 7.875 10.1743 7.875H40.7993C42.4238 7.875 43.9817 8.42812 45.1303 9.41269C46.279 10.3973 46.9243 11.7326 46.9243 13.125V28.875C46.9243 30.2674 46.279 31.6027 45.1303 32.5873C43.9817 33.5719 42.4238 34.125 40.7993 34.125H10.1743C8.54987 34.125 6.99195 33.5719 5.84329 32.5873C4.69463 31.6027 4.04932 30.2674 4.04932 28.875V13.125ZM40.7993 31.5C41.6115 31.5 42.3905 31.2234 42.9648 30.7312C43.5392 30.2389 43.8618 29.5712 43.8618 28.875V21H21.527L25.0397 24.0082C25.3272 24.2547 25.4887 24.589 25.4887 24.9375C25.4887 25.286 25.3272 25.6203 25.0397 25.8668C24.7522 26.1132 24.3622 26.2517 23.9556 26.2517C23.5489 26.2517 23.159 26.1132 22.8714 25.8668L19.3618 22.8559V31.5H40.7993ZM25.2265 18.375H43.8618V13.125C43.8618 12.4288 43.5392 11.7611 42.9648 11.2688C42.3905 10.7766 41.6115 10.5 40.7993 10.5H19.3618V13.3481C20.1798 13.0995 21.0633 13.0547 21.9098 13.2187C22.7564 13.3828 23.5314 13.749 24.1451 14.2751C24.7588 14.8011 25.1861 15.4654 25.3775 16.191C25.5688 16.9166 25.5165 17.6738 25.2265 18.375V18.375ZM20.8931 18.375C21.1959 18.375 21.492 18.298 21.7438 18.1538C21.9956 18.0096 22.1919 17.8046 22.3078 17.5648C22.4237 17.3249 22.454 17.061 22.3949 16.8064C22.3358 16.5518 22.19 16.318 21.9758 16.1344C21.7617 15.9509 21.4888 15.8259 21.1918 15.7752C20.8948 15.7246 20.5869 15.7506 20.3071 15.8499C20.0273 15.9492 19.7881 16.1175 19.6199 16.3333C19.4516 16.5492 19.3618 16.8029 19.3618 17.0625V18.375H20.8931ZM16.2993 13.3481V10.5H10.1743C9.36209 10.5 8.58313 10.7766 8.0088 11.2688C7.43447 11.7611 7.11182 12.4288 7.11182 13.125V18.375H10.4346C10.1446 17.6738 10.0923 16.9166 10.2837 16.191C10.4751 15.4654 10.9024 14.8011 11.5161 14.2751C12.1298 13.749 12.9048 13.3828 13.7513 13.2187C14.5979 13.0547 15.4813 13.0995 16.2993 13.3481ZM14.7681 18.375H16.2993V17.0625C16.2993 16.8029 16.2095 16.5492 16.0413 16.3333C15.873 16.1175 15.6339 15.9492 15.3541 15.8499C15.0743 15.7506 14.7664 15.7246 14.4693 15.7752C14.1723 15.8259 13.8995 15.9509 13.6853 16.1344C13.4712 16.318 13.3253 16.5518 13.2662 16.8064C13.2072 17.061 13.2375 17.3249 13.3534 17.5648C13.4693 17.8046 13.6655 18.0096 13.9173 18.1538C14.1692 18.298 14.4652 18.375 14.7681 18.375ZM14.1341 21H7.11182V28.875C7.11182 29.5712 7.43447 30.2389 8.0088 30.7312C8.58313 31.2234 9.36209 31.5 10.1743 31.5H16.2993V22.8559L12.7897 25.8668C12.6473 25.9888 12.4783 26.0856 12.2923 26.1516C12.1063 26.2177 11.9069 26.2517 11.7056 26.2517C11.5042 26.2517 11.3049 26.2177 11.1188 26.1516C10.9328 26.0856 10.7638 25.9888 10.6214 25.8668C10.4791 25.7447 10.3661 25.5998 10.2891 25.4404C10.212 25.281 10.1724 25.1101 10.1724 24.9375C10.1724 24.7649 10.212 24.594 10.2891 24.4346C10.3661 24.2752 10.4791 24.1303 10.6214 24.0082L14.1341 21Z" fill="white"/>
</svg>
