<svg width="25" height="24" viewBox="0 0 25 24" fill="none" xmlns="http://www.w3.org/2000/svg">
<path d="M20.9868 5V4C20.9868 3.45 20.5368 3 19.9868 3H17.9868C17.4368 3 16.9868 3.45 16.9868 4V5H15.9868V9C15.9868 9.55 16.4368 10 16.9868 10H17.9868V17C17.9868 18.1 17.0868 19 15.9868 19C14.8868 19 13.9868 18.1 13.9868 17V7C13.9868 4.79 12.1968 3 9.98682 3C7.77682 3 5.98682 4.79 5.98682 7V14H4.98682C4.43682 14 3.98682 14.45 3.98682 15V19H4.98682V20C4.98682 20.55 5.43682 21 5.98682 21H7.98682C8.53682 21 8.98682 20.55 8.98682 20V19H9.98682V15C9.98682 14.45 9.53682 14 8.98682 14H7.98682V7C7.98682 5.9 8.88682 5 9.98682 5C11.0868 5 11.9868 5.9 11.9868 7V17C11.9868 19.21 13.7768 21 15.9868 21C18.1968 21 19.9868 19.21 19.9868 17V10H20.9868C21.5368 10 21.9868 9.55 21.9868 9V5H20.9868Z" fill="white"/>
</svg>
