<svg width="31" height="30" viewBox="0 0 31 30" fill="none" xmlns="http://www.w3.org/2000/svg">
<path d="M7.14803 19.4194C7.03191 19.3033 6.93979 19.1655 6.87694 19.0138C6.81409 18.8621 6.78174 18.6995 6.78174 18.5353C6.78174 18.3711 6.81409 18.2085 6.87694 18.0568C6.93979 17.9052 7.03191 17.7673 7.14803 17.6513L8.99178 15.8075C9.22625 15.5733 9.54413 15.4418 9.87553 15.4419H11.4912C11.6554 15.4419 11.818 15.4096 11.9698 15.3468C12.1215 15.2839 12.2594 15.1918 12.3755 15.0756L16.0624 11.3881C16.2967 11.1539 16.4284 10.8363 16.4287 10.505V8.88876C16.4286 8.72451 16.4609 8.56187 16.5238 8.41012C16.5866 8.25837 16.6788 8.1205 16.7949 8.00438L18.6387 6.16063C18.8731 5.92629 19.191 5.79465 19.5224 5.79465C19.8539 5.79465 20.1717 5.92629 20.4062 6.16063L24.8249 10.5806C25.0592 10.815 25.1909 11.1329 25.1909 11.4644C25.1909 11.7958 25.0592 12.1137 24.8249 12.3481L22.9818 14.1919C22.7474 14.4263 22.4295 14.5581 22.098 14.5581H20.4818C20.1503 14.5582 19.8324 14.6899 19.598 14.9244L15.9105 18.6119C15.6765 18.8462 15.545 19.1638 15.5449 19.495V21.1113C15.5448 21.4427 15.4131 21.7606 15.1787 21.995L13.3349 23.8388C13.1005 24.0731 12.7826 24.2047 12.4512 24.2047C12.1197 24.2047 11.8018 24.0731 11.5674 23.8388L7.14803 19.4194V19.4194Z" stroke="white" stroke-width="4" stroke-linejoin="round"/>
<path d="M22.6162 8.37063L26.5937 4.39313M5.38055 25.6063L9.35743 21.6288L5.38055 25.6063Z" stroke="white" stroke-width="4" stroke-linecap="round" stroke-linejoin="round"/>
</svg>
