<svg width="24" height="24" viewBox="0 0 24 24" fill="none" xmlns="http://www.w3.org/2000/svg">
<path d="M4.66815 4.03L1.94986 6.86L5.00433 10.04V12.87L6.36828 14.28L11.7953 8.63L10.4409 7.21H7.72262L4.66815 4.03ZM16.3289 6V7.5C17.2895 7.5 18.1059 8.33 18.1059 9.35C18.1059 10.37 17.2895 11.2 16.3289 11.2V12.7C18.4805 12.7 20.171 14.53 20.171 16.77V21H21.6118V16.76C21.6118 14.54 20.3824 12.62 18.5862 11.73C19.1817 11.12 19.5467 10.28 19.5467 9.35C19.5467 7.5 18.1059 6 16.3289 6ZM11.4591 11.1L8.74078 13.93L13.4954 18.88L14.1774 18.17L16.2137 20.29L18.25 21L17.568 18.88L15.5317 16.76L16.2137 16.05L11.4591 11.1Z" fill="white"/>
</svg>
