<svg width="37" height="40" viewBox="0 0 37 40" fill="none" xmlns="http://www.w3.org/2000/svg">
<path d="M33.3702 27.418H11.99L13.0635 25.0391L30.9001 25.0039C31.5033 25.0039 32.0203 24.5352 32.128 23.8867L34.5981 8.84375C34.6628 8.44922 34.5658 8.04297 34.3288 7.73438C34.2117 7.5825 34.0657 7.46016 33.9007 7.37585C33.7358 7.29153 33.556 7.24726 33.3738 7.24609L10.6831 7.16406L10.4893 6.17188C10.3672 5.53906 9.843 5.07812 9.24701 5.07812H3.69999C3.36386 5.07813 3.0415 5.2234 2.80382 5.482C2.56614 5.74059 2.43262 6.09132 2.43262 6.45703C2.43262 6.82274 2.56614 7.17347 2.80382 7.43207C3.0415 7.69066 3.36386 7.83594 3.69999 7.83594H8.22018L9.06749 12.2187L11.1535 23.207L8.46791 27.9766C8.32845 28.1814 8.24445 28.4245 8.22541 28.6786C8.20638 28.9326 8.25307 29.1874 8.3602 29.4141C8.57562 29.8789 9.01005 30.1719 9.49115 30.1719H11.7459C11.2652 30.8665 11.0056 31.7126 11.0063 32.582C11.0063 34.793 12.6578 36.5898 14.6899 36.5898C16.722 36.5898 18.3736 34.793 18.3736 32.582C18.3736 31.7109 18.1079 30.8633 17.634 30.1719H23.4179C22.9373 30.8665 22.6776 31.7126 22.6783 32.582C22.6783 34.793 24.3299 36.5898 26.362 36.5898C28.3941 36.5898 30.0456 34.793 30.0456 32.582C30.0456 31.7109 29.7799 30.8633 29.306 30.1719H33.3738C34.0703 30.1719 34.6412 29.5547 34.6412 28.793C34.6391 28.4276 34.5043 28.078 34.2662 27.8204C34.0281 27.5629 33.706 27.4182 33.3702 27.418ZM11.2109 9.88281L31.8839 9.95703L29.8589 22.293L13.62 22.3242L11.2109 9.88281ZM14.6899 33.8164C14.0652 33.8164 13.5554 33.2617 13.5554 32.582C13.5554 31.9023 14.0652 31.3477 14.6899 31.3477C15.3146 31.3477 15.8244 31.9023 15.8244 32.582C15.8244 32.9094 15.7049 33.2234 15.4921 33.4549C15.2794 33.6864 14.9908 33.8164 14.6899 33.8164ZM26.362 33.8164C25.7373 33.8164 25.2274 33.2617 25.2274 32.582C25.2274 31.9023 25.7373 31.3477 26.362 31.3477C26.9867 31.3477 27.4965 31.9023 27.4965 32.582C27.4965 32.9094 27.377 33.2234 27.1642 33.4549C26.9514 33.6864 26.6629 33.8164 26.362 33.8164Z" fill="white"/>
</svg>
