<svg width="40" height="40" viewBox="0 0 40 40" fill="none" xmlns="http://www.w3.org/2000/svg">
<path d="M20 31.76L19.52 31.36C9.20002 22.96 6.40002 20 6.40002 15.2C6.40002 11.2 9.60002 8 13.6 8C16.88 8 18.72 9.84 20 11.28C21.28 9.84 23.12 8 26.4 8C30.4 8 33.6 11.2 33.6 15.2C33.6 20 30.8 22.96 20.48 31.36L20 31.76ZM13.6 9.6C10.48 9.6 8.00002 12.08 8.00002 15.2C8.00002 19.28 10.56 22 20 29.68C29.44 22 32 19.28 32 15.2C32 12.08 29.52 9.6 26.4 9.6C23.6 9.6 22.08 11.28 20.88 12.64L20 13.68L19.12 12.64C17.92 11.28 16.4 9.6 13.6 9.6Z" fill="white"/>
</svg>
