<svg width="40" height="40" viewBox="0 0 40 40" fill="none" xmlns="http://www.w3.org/2000/svg">
<path d="M19.6667 3C10.4617 3 3 10.4617 3 19.6667C3 28.8717 10.4617 36.3333 19.6667 36.3333C28.8717 36.3333 36.3333 28.8717 36.3333 19.6667C36.3333 10.4617 28.8717 3 19.6667 3Z" stroke="white" stroke-width="1.5" stroke-linecap="round" stroke-linejoin="round"/>
<path d="M6.78497 30.2433C6.78497 30.2433 10.5 25.5 19.6666 25.5C28.8333 25.5 32.55 30.2433 32.55 30.2433H6.78497ZM19.6666 19.6667C20.9927 19.6667 22.2645 19.1399 23.2022 18.2022C24.1399 17.2645 24.6666 15.9927 24.6666 14.6667C24.6666 13.3406 24.1399 12.0688 23.2022 11.1311C22.2645 10.1934 20.9927 9.66666 19.6666 9.66666C18.3406 9.66666 17.0688 10.1934 16.1311 11.1311C15.1934 12.0688 14.6666 13.3406 14.6666 14.6667C14.6666 15.9927 15.1934 17.2645 16.1311 18.2022C17.0688 19.1399 18.3406 19.6667 19.6666 19.6667V19.6667Z" stroke="white" stroke-width="1.5" stroke-linecap="round" stroke-linejoin="round"/>
</svg>
